<!--
* Licensed under MIT License
* Copyright (c) 2017 Bernhard Grünewaldt
-->
<svg width="1627" height="157" viewBox="0 0 1627 157" xmlns="http://www.w3.org/2000/svg"><title>logo</title><defs><linearGradient x1="50%" y1="0%" x2="50%" y2="100%" id="a"><stop stop-color="#FFF" offset="0%"/><stop stop-color="#CBCBCB" offset="100%"/></linearGradient><radialGradient cy="0%" fx="50%" fy="0%" r="97.485%" id="b"><stop stop-color="#FFD729" offset="0%"/><stop stop-color="#FDF08E" offset="100%"/></radialGradient></defs><g fill="none" fill-rule="evenodd"><path d="M397 29h4.8v57h.3l50.4-57h6l-31.8 36.3 36 62.7H457l-33.9-59.1-21.3 24V128H397V29zm128.6 59.4l-6.9-19.8c-2.1-6-4.075-11.7-5.925-17.1-1.85-5.4-3.675-11.2-5.475-17.4h-.6c-1.8 6.2-3.625 12-5.475 17.4-1.85 5.4-3.825 11.1-5.925 17.1l-7.05 19.8h37.35zm1.5 4.2h-40.35L474.3 128h-4.8l35.4-99h4.2l35.4 99h-5.1l-12.3-35.4zM591.5 77c9.2 0 16.25-1.825 21.15-5.475 4.9-3.65 7.35-9.325 7.35-17.025 0-7.8-2.45-13.3-7.35-16.5-4.9-3.2-11.95-4.8-21.15-4.8h-20.7V77h20.7zm29.4 51L593 81.2h-22.2V128H566V29h27.3c4.9 0 9.3.475 13.2 1.425 3.9.95 7.225 2.45 9.975 4.5s4.875 4.675 6.375 7.875 2.25 7.1 2.25 11.7c0 7.9-2.375 14.075-7.125 18.525-4.75 4.45-11.275 7.075-19.575 7.875l28.2 47.1h-5.7zm51.5-94.8h-32.1V29h69v4.2h-32.1V128h-4.8V33.2zm92 96.6c-5.9 0-11.3-1.225-16.2-3.675-4.9-2.45-9.125-5.925-12.675-10.425-3.55-4.5-6.325-9.925-8.325-16.275-2-6.35-3-13.425-3-21.225 0-7.8 1-14.85 3-21.15 2-6.3 4.775-11.65 8.325-16.05 3.55-4.4 7.775-7.8 12.675-10.2 4.9-2.4 10.3-3.6 16.2-3.6 5.8 0 11.175 1.2 16.125 3.6 4.95 2.4 9.2 5.8 12.75 10.2 3.55 4.4 6.325 9.75 8.325 16.05 2 6.3 3 13.35 3 21.15 0 7.8-1 14.875-3 21.225-2 6.35-4.775 11.775-8.325 16.275-3.55 4.5-7.8 7.975-12.75 10.425-4.95 2.45-10.325 3.675-16.125 3.675zm0-4.5c5.2 0 9.975-1.125 14.325-3.375s8.05-5.425 11.1-9.525c3.05-4.1 5.425-9.05 7.125-14.85 1.7-5.8 2.55-12.25 2.55-19.35 0-7.1-.85-13.525-2.55-19.275-1.7-5.75-4.075-10.65-7.125-14.7-3.05-4.05-6.75-7.15-11.1-9.3-4.35-2.15-9.125-3.225-14.325-3.225-5.3 0-10.1 1.075-14.4 3.225-4.3 2.15-7.975 5.25-11.025 9.3-3.05 4.05-5.425 8.95-7.125 14.7-1.7 5.75-2.55 12.175-2.55 19.275 0 7.1.85 13.55 2.55 19.35 1.7 5.8 4.075 10.75 7.125 14.85s6.725 7.275 11.025 9.525c4.3 2.25 9.1 3.375 14.4 3.375zM833 29h52.8v4.2h-48v41.7h40.5v4.2h-40.5V128H833V29zm75.5 0h52.8v4.2h-48v41.7h40.5v4.2h-40.5V128h-4.8V29zm75.5 0h53.1v4.2h-48.3v39.9h40.5v4.2h-40.5v46.5h49.8v4.2H984V29zm81.5 0h4.8v94.8h46.5v4.2h-51.3V29zm66.8 82.5c3.6 4.2 7.95 7.55 13.05 10.05 5.1 2.5 10.65 3.75 16.65 3.75 4 0 7.6-.525 10.8-1.575 3.2-1.05 5.925-2.5 8.175-4.35 2.25-1.85 4-4.075 5.25-6.675 1.25-2.6 1.875-5.5 1.875-8.7 0-3.3-.5-6.075-1.5-8.325-1-2.25-2.325-4.2-3.975-5.85-1.65-1.65-3.575-3.075-5.775-4.275-2.2-1.2-4.55-2.35-7.05-3.45l-15.3-6.9c-2.1-.9-4.325-2-6.675-3.3-2.35-1.3-4.525-2.875-6.525-4.725-2-1.85-3.65-4.1-4.95-6.75-1.3-2.65-1.95-5.825-1.95-9.525 0-3.5.7-6.7 2.1-9.6 1.4-2.9 3.35-5.4 5.85-7.5 2.5-2.1 5.45-3.725 8.85-4.875 3.4-1.15 7.1-1.725 11.1-1.725 6 0 11.275 1.175 15.825 3.525 4.55 2.35 8.275 5.075 11.175 8.175l-3 3.3c-2.9-3.2-6.35-5.75-10.35-7.65-4-1.9-8.55-2.85-13.65-2.85-6.9 0-12.475 1.725-16.725 5.175-4.25 3.45-6.375 8.025-6.375 13.725 0 3.1.575 5.725 1.725 7.875 1.15 2.15 2.6 4 4.35 5.55 1.75 1.55 3.625 2.85 5.625 3.9 2 1.05 3.9 1.975 5.7 2.775l15.3 6.9c2.7 1.2 5.325 2.525 7.875 3.975 2.55 1.45 4.8 3.175 6.75 5.175 1.95 2 3.5 4.375 4.65 7.125 1.15 2.75 1.725 6.025 1.725 9.825 0 3.8-.75 7.275-2.25 10.425-1.5 3.15-3.6 5.9-6.3 8.25-2.7 2.35-5.95 4.175-9.75 5.475-3.8 1.3-8 1.95-12.6 1.95-7.4 0-13.8-1.4-19.2-4.2-5.4-2.8-10-6.4-13.8-10.8l3.3-3.3zm105.5-78.3h-32.1V29h69v4.2h-32.1V128h-4.8V33.2zm98 55.2l-6.9-19.8c-2.1-6-4.075-11.7-5.925-17.1-1.85-5.4-3.675-11.2-5.475-17.4h-.6c-1.8 6.2-3.625 12-5.475 17.4-1.85 5.4-3.825 11.1-5.925 17.1l-7.05 19.8h37.35zm1.5 4.2h-40.35L1284.5 128h-4.8l35.4-99h4.2l35.4 99h-5.1l-12.3-35.4zm38.9-63.6h7.8l21.3 60 8.1 22.5h.6l7.8-22.5 21.3-60h7.8v99h-4.8V59c0-3.9.05-8.15.15-12.75.1-4.6.25-8.95.45-13.05h-.6l-7.65 21.6-22.05 62.1h-5.7l-22.2-62.1-7.8-21.6h-.6c.2 4.1.35 8.45.45 13.05.1 4.6.15 8.85.15 12.75v69h-4.5V29zm109.7 0h25.8c11.1 0 19.675 2.025 25.725 6.075 6.05 4.05 9.075 11.025 9.075 20.925 0 9.5-3 16.575-9 21.225-6 4.65-14.6 6.975-25.8 6.975h-21V128h-4.8V29zm24 51c10.7 0 18.625-1.85 23.775-5.55 5.15-3.7 7.725-9.85 7.725-18.45 0-8.7-2.6-14.675-7.8-17.925-5.2-3.25-13.1-4.875-23.7-4.875h-19.2V80h19.2zm63.8-51h52.8v4.2h-48v41.7h40.5v4.2h-40.5V128h-4.8V29z" fill="#555"/><g stroke="#555"><path d="M121.448 137.17c52.858 0 93.013-7.31 112.677-32.653.76-32.98 12.318-40.68 5.24-50.185-23.862-32.037-44.113-10.37-114.99-10.37-70.874 0-93.898-23.558-114.987 10.37-7.554 12.154 6.82 17.643 6.858 50.185C38.203 126.295 73.3 137.17 121.448 137.17z" stroke-width="6" fill="url(#a)" transform="translate(3 16)"/><path d="M242.568 64c0 31.316-44.112 38.564-114.988 38.564-70.875 0-114.988-7.248-114.988-38.564" stroke-width="6"/><path d="M10.585 62.986c-23.45-20.046-2.892-45.37 13.12-39.357 2.994 1.124 1.95 7.51 5.084 8.138 2.325.466-1.45-5.24 0-7.12l3.048-6.106c6.375-8.278 11.46-11.99 23.68-6.187 3.204 1.52 1.664 9.217 5.21 9.283.577.01-8.312-18.29-1.06-17.383 13.517 1.69.484 6.13 8.22-.083.792-.637 2.237-.612 3.05 0 1.165.877 3.6 7.66 7.2 6.188 6.417-2.624 12.143-7.254 18.95-8.577 10.027-1.95 20.486-2.296 30.627-1.06 6.405.78.575 13.757 3.133 14.33 2.996.67 1.757-10.146 4.154-8.226l3.05-2.035c25.965 2.035 20.99-.54 33.182 18.754 1.668-9.378 6.585-4.468 10.25-4.113h5.17c5.58.54 11.27.68 16.69 2.118 1.428.38 1.99 4.078 3.133 3.14v3.053c1.233-1.013.297-3.753 1.723-4.467 10.883-5.448 9.266 6.684 15.547 7.956 8.557 1.733 18.537-4.244 26.193-.044 4.21 2.31 2.09 10.09 0 14.415-18.066 37.378-61.433 38.83-95.63 40.017C73.033 88.438 44.37 82.205 25.744 72.5l-15.16-9.514z" stroke-opacity=".99" stroke-width="5" fill="url(#b)" transform="translate(3 16)"/><path d="M23.384 61.635c10.523 3.494 20.155 6 28.588-2.435M78.54 52.624c8.17 0 6.582-10.412 26.222 1.458M74.943 68.8c8.577 7.108 12.77 9.605 23.82 9.605M128.9 41.66c14.326-2.184 7.52-3.507 20.28 4.63M133.697 82c6.925 2.585 15.132 8.935 21.25 2.814M150.483 77.706c4.236-5.667 1.102-3.18 11.277-4.106M178.062 60.97c12.074-6.116 5.174-4.974 20.98 0M187.654 74.8c9.975 8.47 5.106 6.823 12.94 8.39M208.038 72.483c4.22-8.27.827-4.082 12.943-9.683M118.02 83.72c-.992-11.968-3.42-7.767 4.87-13.72" stroke-width="5"/><path d="M107.29 16.57c-2.686-8.112 14.013-22.965 22.918-5.25.644 1.282 2.17 10.6 3.428 9.91.904-.496 5.934-15.23 6.555-16.808.245-.62 1.59-.525 2 0l10 10c.85 1.08-.292 4.466 1 4 4.255-1.535.206-14.233 2 1.918.083.74.38 1.586 1 2 .556.37 2.597-.298 2 0-12.602 6.295-3.214-2.926-1 6.125.324 1.32-2.775.382-4.08 0-1.516-.444-2.546-2.05-4.087-2.39-3.676-.814-7.892.7-11.25-1L126.67 31.94c-1.89-.958-2.708-13.775-2.065-16.99.13-.655-6.41 10.124-5.742 10.124L107.29 16.57z" stroke-width="5" fill="#02A300"/></g></g></svg>