<?xml version="1.0" encoding="UTF-8" standalone="no"?>
<svg width="2010px" height="780px" viewBox="0 0 2010 780" version="1.1" xmlns="http://www.w3.org/2000/svg" xmlns:xlink="http://www.w3.org/1999/xlink">
    <!-- Generator: Sketch 42 (36781) - http://www.bohemiancoding.com/sketch -->
    <title>Group 2</title>
    <desc>Created with Sketch.</desc>
    <defs>
        <linearGradient x1="50%" y1="0%" x2="50%" y2="100%" id="linearGradient-1">
            <stop stop-color="#FBFBFB" offset="0%"></stop>
            <stop stop-color="#FDFDFD" offset="100%"></stop>
        </linearGradient>
        <linearGradient x1="50%" y1="0%" x2="50%" y2="100%" id="linearGradient-2">
            <stop stop-color="#FFFFFF" offset="0%"></stop>
            <stop stop-color="#CBCBCB" offset="100%"></stop>
        </linearGradient>
        <radialGradient cx="50%" cy="0%" fx="50%" fy="0%" r="97.4848533%" id="radialGradient-3">
            <stop stop-color="#FFD729" offset="0%"></stop>
            <stop stop-color="#FDF08E" offset="100%"></stop>
        </radialGradient>
    </defs>
    <g id="Page-1" stroke="none" stroke-width="1" fill="none" fill-rule="evenodd">
        <g id="Group-2">
            <rect id="Rectangle" fill="url(#linearGradient-1)" x="0" y="0" width="2010" height="780"></rect>
            <g id="Group" transform="translate(879.000000, 457.000000)" stroke="#555555">
                <path d="M121.447782,137.170889 C174.306063,137.170889 214.461195,129.860742 234.124761,104.517042 C234.883806,71.5374335 246.44258,63.8368983 239.363918,54.3324928 C215.503436,22.2954084 195.251806,43.9626293 124.37618,43.9626293 C53.5005543,43.9626293 30.4768311,20.4036995 9.38844297,54.3324928 C1.83416484,66.4864583 16.2077923,71.9753254 16.2463557,104.517042 C38.2027029,126.295017 73.2997824,137.170889 121.447782,137.170889 Z" id="Oval" stroke-width="6" fill="url(#linearGradient-2)"></path>
                <path d="M239.567892,48 C239.567892,79.3162971 195.45578,86.5640948 124.580154,86.5640948 C53.7045284,86.5640948 9.59241706,79.3162971 9.59241706,48" id="Oval" stroke-width="6"></path>
                <path d="M10.5854238,62.9856234 C-12.8643138,42.9398053 7.69319247,17.6146474 23.7057376,23.6293342 C26.6986898,24.7535572 25.65393,31.1410085 28.7886678,31.7684517 C31.1146387,32.2340136 27.3407057,26.5270256 28.7886678,24.6467239 L31.838426,18.5423858 C38.2130166,10.2644391 43.2992386,6.55170196 55.5177333,12.35459 C58.7217044,13.876241 57.1819266,21.5716927 60.7277368,21.6382708 C61.3046426,21.6491031 52.4160583,3.34807134 59.6674694,4.25521427 C73.1853048,5.94627946 60.1516918,10.3855289 67.8875207,4.17175652 C68.6803301,3.53493564 70.1250004,3.56000336 70.9372789,4.17175652 C72.1027283,5.04949422 74.5370916,11.8308343 78.1367731,10.3595524 C84.554639,7.73640646 90.2812917,3.10613084 97.0865726,1.78327527 C107.114816,-0.166081103 117.574406,-0.513306361 127.715199,0.722169629 C134.11969,1.50244354 128.289535,14.4801741 130.848349,15.0530571 C133.844269,15.7238023 132.604811,4.90719568 135.002056,6.82650773 L138.051814,4.79172836 C164.016805,6.82650773 159.042327,4.2516514 171.233818,23.5458765 C172.902064,14.16751 177.819329,19.077594 181.483071,19.4326018 L186.653364,19.4326018 C192.235244,19.9734727 197.922803,20.1130505 203.343642,21.5508389 C204.77224,21.929751 205.334121,25.6284869 206.476792,24.6904399 L206.476792,27.7426089 C207.709889,26.7303289 206.773852,23.9896992 208.200223,23.2756323 C219.082746,17.8276457 217.465935,29.9602864 223.746842,31.2319376 C232.304484,32.9645434 242.283796,26.9877887 249.939817,31.1882216 C254.149694,33.4979471 252.030383,41.2772289 249.939817,45.6025669 C231.873896,82.9805822 188.506955,84.4338331 154.310255,85.6197494 C73.0331835,88.4383784 44.3698093,82.2046935 25.7435655,72.4996066 L10.5854238,62.9856234 Z" id="Path-2" stroke-opacity="0.99" stroke-width="5" fill="url(#radialGradient-3)"></path>
                <path d="M20.3838863,45.6348532 C30.9069555,49.1286355 40.5390223,51.6345657 48.972377,43.2" id="Path-3" stroke-width="5"></path>
                <path d="M75.5402844,36.62399 C83.7091186,36.62399 82.1219325,26.2118277 101.761515,38.0823982" id="Path-4" stroke-width="5"></path>
                <path d="M71.943128,52.8 C80.5200888,59.9077009 84.7126124,62.4048388 95.7627007,62.4048388" id="Path-5" stroke-width="5"></path>
                <path d="M125.900474,25.6601903 C140.226071,23.4755164 133.419789,22.1526373 146.180102,30.2889151" id="Path-7" stroke-width="5"></path>
                <path d="M130.696682,66 C137.621912,68.5852503 145.828881,74.9352235 151.94573,68.8135386" id="Path-8" stroke-width="5"></path>
                <path d="M147.483412,61.7060764 C151.719485,56.0392043 148.584814,58.5257435 158.759949,57.6" id="Path-9" stroke-width="5"></path>
                <path d="M175.061611,44.9689683 C187.135968,38.8541661 180.236253,39.9957512 196.041723,44.9689683" id="Path-10" stroke-width="5"></path>
                <path d="M184.654028,58.8 C194.628974,67.2703863 189.760278,65.6225161 197.594214,67.1905418" id="Path-11" stroke-width="5"></path>
                <path d="M205.037915,56.4830796 C209.257247,48.2141336 205.864602,52.4014441 217.981227,46.8" id="Path-12" stroke-width="5"></path>
                <path d="M115.020615,67.7203041 C114.027576,55.7517155 111.600093,59.953214 119.889602,54" id="Path-13" stroke-width="5"></path>
            </g>
            <path d="M396,250 L400.8,250 L400.8,307 L401.1,307 L451.5,250 L457.5,250 L425.7,286.3 L461.7,349 L456,349 L422.1,289.9 L400.8,313.9 L400.8,349 L396,349 L396,250 Z M524.6,309.4 L517.7,289.6 C515.599989,283.59997 513.625009,277.900027 511.775,272.5 C509.924991,267.099973 508.100009,261.300031 506.3,255.1 L505.7,255.1 C503.899991,261.300031 502.075009,267.099973 500.225,272.5 C498.374991,277.900027 496.400011,283.59997 494.3,289.6 L487.25,309.4 L524.6,309.4 Z M526.1,313.6 L485.75,313.6 L473.3,349 L468.5,349 L503.9,250 L508.1,250 L543.5,349 L538.4,349 L526.1,313.6 Z M590.5,298 C599.700046,298 606.749976,296.175018 611.65,292.525 C616.550025,288.874982 619,283.200039 619,275.5 C619,267.699961 616.550025,262.200016 611.65,259 C606.749976,255.799984 599.700046,254.2 590.5,254.2 L569.8,254.2 L569.8,298 L590.5,298 Z M619.9,349 L592,302.2 L569.8,302.2 L569.8,349 L565,349 L565,250 L592.3,250 C597.200024,250 601.599981,250.474995 605.5,251.425 C609.400019,252.375005 612.724986,253.87499 615.475,255.925 C618.225014,257.97501 620.349992,260.599984 621.85,263.8 C623.350007,267.000016 624.1,270.899977 624.1,275.5 C624.1,283.40004 621.725024,289.574978 616.975,294.025 C612.224976,298.475022 605.700041,301.099996 597.4,301.9 L625.6,349 L619.9,349 Z M671.4,254.2 L639.3,254.2 L639.3,250 L708.3,250 L708.3,254.2 L676.2,254.2 L676.2,349 L671.4,349 L671.4,254.2 Z M763.4,350.8 C757.499971,350.8 752.100025,349.575012 747.2,347.125 C742.299975,344.674988 738.075018,341.200022 734.525,336.7 C730.974982,332.199977 728.20001,326.775032 726.2,320.425 C724.19999,314.074968 723.2,307.000039 723.2,299.2 C723.2,291.399961 724.19999,284.350032 726.2,278.05 C728.20001,271.749969 730.974982,266.400022 734.525,262 C738.075018,257.599978 742.299975,254.200012 747.2,251.8 C752.100025,249.399988 757.499971,248.2 763.4,248.2 C769.200029,248.2 774.574975,249.399988 779.525,251.8 C784.475025,254.200012 788.724982,257.599978 792.275,262 C795.825018,266.400022 798.59999,271.749969 800.6,278.05 C802.60001,284.350032 803.6,291.399961 803.6,299.2 C803.6,307.000039 802.60001,314.074968 800.6,320.425 C798.59999,326.775032 795.825018,332.199977 792.275,336.7 C788.724982,341.200022 784.475025,344.674988 779.525,347.125 C774.574975,349.575012 769.200029,350.8 763.4,350.8 Z M763.4,346.3 C768.600026,346.3 773.374978,345.175011 777.725,342.925 C782.075022,340.674989 785.774985,337.500021 788.825,333.4 C791.875015,329.29998 794.249991,324.350029 795.95,318.55 C797.650009,312.749971 798.5,306.300035 798.5,299.2 C798.5,292.099964 797.650009,285.675029 795.95,279.925 C794.249991,274.174971 791.875015,269.27502 788.825,265.225 C785.774985,261.17498 782.075022,258.075011 777.725,255.925 C773.374978,253.774989 768.600026,252.7 763.4,252.7 C758.099974,252.7 753.300021,253.774989 749,255.925 C744.699978,258.075011 741.025015,261.17498 737.975,265.225 C734.924985,269.27502 732.550008,274.174971 730.85,279.925 C729.149991,285.675029 728.3,292.099964 728.3,299.2 C728.3,306.300035 729.149991,312.749971 730.85,318.55 C732.550008,324.350029 734.924985,329.29998 737.975,333.4 C741.025015,337.500021 744.699978,340.674989 749,342.925 C753.300021,345.175011 758.099974,346.3 763.4,346.3 Z M832,250 L884.8,250 L884.8,254.2 L836.8,254.2 L836.8,295.9 L877.3,295.9 L877.3,300.1 L836.8,300.1 L836.8,349 L832,349 L832,250 Z M907.5,250 L960.3,250 L960.3,254.2 L912.3,254.2 L912.3,295.9 L952.8,295.9 L952.8,300.1 L912.3,300.1 L912.3,349 L907.5,349 L907.5,250 Z M983,250 L1036.1,250 L1036.1,254.2 L987.8,254.2 L987.8,294.1 L1028.3,294.1 L1028.3,298.3 L987.8,298.3 L987.8,344.8 L1037.6,344.8 L1037.6,349 L983,349 L983,250 Z M1064.5,250 L1069.3,250 L1069.3,344.8 L1115.8,344.8 L1115.8,349 L1064.5,349 L1064.5,250 Z M1131.3,332.5 C1134.90002,336.700021 1139.24997,340.049988 1144.35,342.55 C1149.45003,345.050012 1154.99997,346.3 1161,346.3 C1165.00002,346.3 1168.59998,345.775005 1171.8,344.725 C1175.00002,343.674995 1177.72499,342.225009 1179.975,340.375 C1182.22501,338.524991 1183.97499,336.300013 1185.225,333.7 C1186.47501,331.099987 1187.1,328.200016 1187.1,325 C1187.1,321.699983 1186.6,318.925011 1185.6,316.675 C1184.6,314.424989 1183.27501,312.475008 1181.625,310.825 C1179.97499,309.174992 1178.05001,307.750006 1175.85,306.55 C1173.64999,305.349994 1171.30001,304.200006 1168.8,303.1 L1153.5,296.2 C1151.39999,295.299996 1149.17501,294.200006 1146.825,292.9 C1144.47499,291.599993 1142.30001,290.025009 1140.3,288.175 C1138.29999,286.324991 1136.65001,284.075013 1135.35,281.425 C1134.04999,278.774987 1133.4,275.600019 1133.4,271.9 C1133.4,268.399983 1134.09999,265.200014 1135.5,262.3 C1136.90001,259.399985 1138.84999,256.900011 1141.35,254.8 C1143.85001,252.699989 1146.79998,251.075006 1150.2,249.925 C1153.60002,248.774994 1157.29998,248.2 1161.3,248.2 C1167.30003,248.2 1172.57498,249.374988 1177.125,251.725 C1181.67502,254.075012 1185.39999,256.799984 1188.3,259.9 L1185.3,263.2 C1182.39999,259.999984 1178.95002,257.45001 1174.95,255.55 C1170.94998,253.649991 1166.40003,252.7 1161.3,252.7 C1154.39997,252.7 1148.82502,254.424983 1144.575,257.875 C1140.32498,261.325017 1138.2,265.899971 1138.2,271.6 C1138.2,274.700016 1138.77499,277.324989 1139.925,279.475 C1141.07501,281.625011 1142.52499,283.474992 1144.275,285.025 C1146.02501,286.575008 1147.89999,287.874995 1149.9,288.925 C1151.90001,289.975005 1153.79999,290.899996 1155.6,291.7 L1170.9,298.6 C1173.60001,299.800006 1176.22499,301.124993 1178.775,302.575 C1181.32501,304.025007 1183.57499,305.74999 1185.525,307.75 C1187.47501,309.75001 1189.02499,312.124986 1190.175,314.875 C1191.32501,317.625014 1191.9,320.899981 1191.9,324.7 C1191.9,328.500019 1191.15001,331.974984 1189.65,335.125 C1188.14999,338.275016 1186.05001,341.024988 1183.35,343.375 C1180.64999,345.725012 1177.40002,347.549994 1173.6,348.85 C1169.79998,350.150007 1165.60002,350.8 1161,350.8 C1153.59996,350.8 1147.20003,349.400014 1141.8,346.6 C1136.39997,343.799986 1131.80002,340.200022 1128,335.8 L1131.3,332.5 Z M1236.8,254.2 L1204.7,254.2 L1204.7,250 L1273.7,250 L1273.7,254.2 L1241.6,254.2 L1241.6,349 L1236.8,349 L1236.8,254.2 Z M1334.8,309.4 L1327.9,289.6 C1325.79999,283.59997 1323.82501,277.900027 1321.975,272.5 C1320.12499,267.099973 1318.30001,261.300031 1316.5,255.1 L1315.9,255.1 C1314.09999,261.300031 1312.27501,267.099973 1310.425,272.5 C1308.57499,277.900027 1306.60001,283.59997 1304.5,289.6 L1297.45,309.4 L1334.8,309.4 Z M1336.3,313.6 L1295.95,313.6 L1283.5,349 L1278.7,349 L1314.1,250 L1318.3,250 L1353.7,349 L1348.6,349 L1336.3,313.6 Z M1375.2,250 L1383,250 L1404.3,310 L1412.4,332.5 L1413,332.5 L1420.8,310 L1442.1,250 L1449.9,250 L1449.9,349 L1445.1,349 L1445.1,280 C1445.1,276.099981 1445.15,271.850023 1445.25,267.25 C1445.35,262.649977 1445.5,258.300021 1445.7,254.2 L1445.1,254.2 L1437.45,275.8 L1415.4,337.9 L1409.7,337.9 L1387.5,275.8 L1379.7,254.2 L1379.1,254.2 C1379.3,258.300021 1379.45,262.649977 1379.55,267.25 C1379.65,271.850023 1379.7,276.099981 1379.7,280 L1379.7,349 L1375.2,349 L1375.2,250 Z M1484.9,250 L1510.7,250 C1521.80006,250 1530.37497,252.02498 1536.425,256.075 C1542.47503,260.12502 1545.5,267.09995 1545.5,277 C1545.5,286.500047 1542.50003,293.574977 1536.5,298.225 C1530.49997,302.875023 1521.90006,305.2 1510.7,305.2 L1489.7,305.2 L1489.7,349 L1484.9,349 L1484.9,250 Z M1508.9,301 C1519.60005,301 1527.52497,299.150018 1532.675,295.45 C1537.82503,291.749982 1540.4,285.600043 1540.4,277 C1540.4,268.299957 1537.80003,262.325016 1532.6,259.075 C1527.39997,255.824984 1519.50005,254.2 1508.9,254.2 L1489.7,254.2 L1489.7,301 L1508.9,301 Z M1572.7,250 L1625.5,250 L1625.5,254.2 L1577.5,254.2 L1577.5,295.9 L1618,295.9 L1618,300.1 L1577.5,300.1 L1577.5,349 L1572.7,349 L1572.7,250 Z" id="KARTOFFELSTAMPF-Copy" fill="#555555"></path>
            <path d="M983.288612,457.568987 C980.604063,449.457665 997.302564,434.605327 1006.20756,452.320671 C1006.85181,453.602327 1008.37852,462.919981 1009.63622,462.230131 C1010.54028,461.734248 1015.57004,446.999158 1016.1909,445.421537 C1016.43504,444.801181 1017.77902,444.897325 1018.1909,445.421537 L1028.1909,455.421537 C1029.04002,456.502228 1027.89806,459.887837 1029.1909,459.421537 C1033.44544,457.887023 1029.39642,445.189185 1031.1909,461.339506 C1031.27321,462.080303 1031.57073,462.926057 1032.1909,463.339506 C1032.7456,463.709306 1034.7873,463.041592 1034.1909,463.339506 C1021.58824,469.63481 1030.97598,460.414457 1033.1909,469.464506 C1033.51437,470.786176 1030.41476,469.846719 1029.10887,469.464506 C1027.59443,469.021256 1026.5637,467.414529 1025.02293,467.073881 C1021.34692,466.26115 1017.13115,467.775638 1013.77293,466.073881 L1002.67142,472.940788 C1000.77949,471.982063 999.961702,459.1652 1000.60497,455.948881 C1000.73571,455.295161 994.196164,466.073881 994.86283,466.073881 L983.288612,457.568987 Z" id="Path-6" stroke="#555555" stroke-width="5" fill="#02A300"></path>
        </g>
    </g>
</svg>